<svg width="1298" height="1030" viewBox="0 0 1298 1030" fill="none" xmlns="http://www.w3.org/2000/svg">
  <g filter="url(#filter0_f_766_4159)">
    <path
      fill-rule="evenodd"
      clip-rule="evenodd"
      d="M782.976 246.628C876.727 251.674 981.152 227.637 1060.41 254.884C1139.6 282.111 1150.22 340.564 1189.37 386.345C1224.84 427.824 1258.9 467.611 1280.1 511.789C1307.08 568.03 1397.97 635.272 1330.7 680.857C1259.08 729.394 1099.67 682.386 993.048 706.319C906.072 725.843 873.131 788.968 782.976 803.806C685.121 819.911 577.258 810.603 482.092 790.412C379.243 768.591 251.499 741.914 222.309 684.851C191.51 624.643 335.781 574.175 339.565 511.789C343.153 452.636 216.669 402.583 242.915 345.087C268.864 288.244 367.726 242.067 471.311 223.182C572.329 204.766 676.782 240.914 782.976 246.628Z"
      fill="url(#paint0_linear_766_4159)"
      fill-opacity="0.4"
    />
  </g>
  <defs>
    <filter
      id="filter0_f_766_4159"
      x="0"
      y="0"
      width="1573"
      height="1030"
      filterUnits="userSpaceOnUse"
      color-interpolation-filters="sRGB"
    >
      <feFlood flood-opacity="0" result="BackgroundImageFix" />
      <feBlend mode="normal" in="SourceGraphic" in2="BackgroundImageFix" result="shape" />
      <feGaussianBlur stdDeviation="109" result="effect1_foregroundBlur_766_4159" />
    </filter>
    <linearGradient
      id="paint0_linear_766_4159"
      x1="-290.815"
      y1="518.047"
      x2="173.663"
      y2="1407.12"
      gradientUnits="userSpaceOnUse"
    >
      <stop stop-color="#EFD7C7" />
      <stop offset="1" stop-color="#EFD7C7" />
    </linearGradient>
  </defs>
</svg>
